<svg width="77" height="18" viewBox="0 0 77 18" fill="none" xmlns="http://www.w3.org/2000/svg">
<path d="M18.676 13V6.016H16.132V4.48H23.068V6.016H20.512V13H18.676ZM25.4548 13.144C24.7908 13.144 24.2708 12.932 23.8948 12.508C23.5268 12.076 23.3428 11.476 23.3428 10.708V6.568H25.1428V10.288C25.1428 10.784 25.2188 11.148 25.3708 11.38C25.5228 11.604 25.7628 11.716 26.0908 11.716C26.4588 11.716 26.7428 11.592 26.9428 11.344C27.1508 11.088 27.2548 10.708 27.2548 10.204V6.568H29.0548V13H27.4108L27.3628 11.152L27.5908 11.2C27.4948 11.84 27.2668 12.324 26.9068 12.652C26.5468 12.98 26.0628 13.144 25.4548 13.144ZM30.6318 13V6.568H32.3358L32.3958 8.44L32.2638 8.404C32.3678 7.756 32.5518 7.288 32.8158 7C33.0798 6.712 33.4438 6.568 33.9078 6.568H34.4958V8.056H33.9078C33.5718 8.056 33.2958 8.1 33.0798 8.188C32.8638 8.276 32.6998 8.416 32.5878 8.608C32.4838 8.8 32.4318 9.06 32.4318 9.388V13H30.6318ZM39.1325 13.144C38.6845 13.144 38.2925 13.048 37.9565 12.856C37.6285 12.664 37.3725 12.396 37.1885 12.052L37.1525 13H35.4365V4.48H37.2365V7.48C37.4045 7.184 37.6525 6.936 37.9805 6.736C38.3085 6.528 38.6925 6.424 39.1325 6.424C39.6765 6.424 40.1485 6.564 40.5485 6.844C40.9485 7.116 41.2565 7.504 41.4725 8.008C41.6965 8.512 41.8085 9.104 41.8085 9.784C41.8085 10.464 41.6965 11.056 41.4725 11.56C41.2565 12.064 40.9485 12.456 40.5485 12.736C40.1485 13.008 39.6765 13.144 39.1325 13.144ZM38.6285 11.764C39.0285 11.764 39.3485 11.592 39.5885 11.248C39.8365 10.896 39.9605 10.408 39.9605 9.784C39.9605 9.16 39.8405 8.676 39.6005 8.332C39.3605 7.98 39.0405 7.804 38.6405 7.804C38.3445 7.804 38.0885 7.884 37.8725 8.044C37.6645 8.196 37.5045 8.42 37.3925 8.716C37.2885 9.012 37.2365 9.368 37.2365 9.784C37.2365 10.192 37.2885 10.544 37.3925 10.84C37.5045 11.136 37.6645 11.364 37.8725 11.524C38.0885 11.684 38.3405 11.764 38.6285 11.764ZM45.8408 13.144C45.1848 13.144 44.6128 13.008 44.1248 12.736C43.6368 12.456 43.2568 12.064 42.9848 11.56C42.7128 11.056 42.5768 10.464 42.5768 9.784C42.5768 9.104 42.7128 8.516 42.9848 8.02C43.2568 7.516 43.6368 7.124 44.1248 6.844C44.6128 6.564 45.1848 6.424 45.8408 6.424C46.4968 6.424 47.0688 6.564 47.5568 6.844C48.0448 7.124 48.4248 7.516 48.6968 8.02C48.9688 8.516 49.1048 9.104 49.1048 9.784C49.1048 10.464 48.9688 11.056 48.6968 11.56C48.4248 12.064 48.0448 12.456 47.5568 12.736C47.0688 13.008 46.4968 13.144 45.8408 13.144ZM45.8408 11.764C46.2888 11.764 46.6368 11.592 46.8848 11.248C47.1328 10.896 47.2568 10.408 47.2568 9.784C47.2568 9.16 47.1328 8.676 46.8848 8.332C46.6368 7.98 46.2888 7.804 45.8408 7.804C45.3928 7.804 45.0448 7.98 44.7968 8.332C44.5488 8.676 44.4248 9.16 44.4248 9.784C44.4248 10.408 44.5488 10.896 44.7968 11.248C45.0448 11.592 45.3928 11.764 45.8408 11.764ZM50.3216 13V4.48H53.7296C54.7536 4.48 55.5536 4.728 56.1296 5.224C56.7136 5.72 57.0056 6.4 57.0056 7.264C57.0056 7.832 56.8736 8.328 56.6096 8.752C56.3536 9.168 55.9776 9.492 55.4816 9.724C54.9936 9.948 54.4096 10.06 53.7296 10.06H52.1456V13H50.3216ZM52.1456 8.524H53.6216C54.1016 8.524 54.4736 8.42 54.7376 8.212C55.0016 7.996 55.1336 7.68 55.1336 7.264C55.1336 6.856 55.0016 6.548 54.7376 6.34C54.4816 6.124 54.1096 6.016 53.6216 6.016H52.1456V8.524ZM59.9266 13.144C59.2626 13.144 58.7186 12.992 58.2946 12.688C57.8786 12.376 57.6706 11.944 57.6706 11.392C57.6706 10.824 57.8466 10.388 58.1986 10.084C58.5586 9.772 59.0866 9.544 59.7826 9.4L61.8586 8.992C61.8586 8.576 61.7626 8.264 61.5706 8.056C61.3866 7.84 61.1186 7.732 60.7666 7.732C60.4226 7.732 60.1546 7.812 59.9626 7.972C59.7706 8.124 59.6466 8.352 59.5906 8.656L57.7786 8.572C57.8986 7.868 58.2146 7.336 58.7266 6.976C59.2466 6.608 59.9266 6.424 60.7666 6.424C61.7266 6.424 62.4466 6.652 62.9266 7.108C63.4146 7.564 63.6586 8.232 63.6586 9.112V11.308C63.6586 11.492 63.6866 11.616 63.7426 11.68C63.8066 11.736 63.8986 11.764 64.0186 11.764H64.1986V13C64.1426 13.016 64.0506 13.032 63.9226 13.048C63.8026 13.064 63.6826 13.072 63.5626 13.072C63.3066 13.072 63.0666 13.028 62.8426 12.94C62.6266 12.852 62.4506 12.704 62.3146 12.496C62.1786 12.28 62.1106 11.976 62.1106 11.584L62.2666 11.704C62.1866 11.992 62.0426 12.244 61.8346 12.46C61.6346 12.676 61.3706 12.844 61.0426 12.964C60.7226 13.084 60.3506 13.144 59.9266 13.144ZM60.3586 11.908C60.6546 11.908 60.9146 11.852 61.1386 11.74C61.3626 11.62 61.5386 11.448 61.6666 11.224C61.7946 11 61.8586 10.736 61.8586 10.432V10.12L60.3946 10.432C60.1066 10.488 59.8866 10.584 59.7346 10.72C59.5906 10.848 59.5186 11.016 59.5186 11.224C59.5186 11.44 59.5906 11.608 59.7346 11.728C59.8786 11.848 60.0866 11.908 60.3586 11.908ZM65.2614 14.8V13.456H66.1134C66.3214 13.456 66.4734 13.424 66.5694 13.36C66.6734 13.304 66.7534 13.2 66.8094 13.048L66.9414 12.676H66.4494L64.1934 6.568H66.0294L67.5054 10.996L68.8854 6.568H70.7214L68.2494 13.612C68.1054 14.036 67.8974 14.34 67.6254 14.524C67.3534 14.708 66.9734 14.8 66.4854 14.8H65.2614Z" fill="#5548C8"/>
<path d="M18.676 13V6.016H16.132V4.48H23.068V6.016H20.512V13H18.676ZM25.4548 13.144C24.7908 13.144 24.2708 12.932 23.8948 12.508C23.5268 12.076 23.3428 11.476 23.3428 10.708V6.568H25.1428V10.288C25.1428 10.784 25.2188 11.148 25.3708 11.38C25.5228 11.604 25.7628 11.716 26.0908 11.716C26.4588 11.716 26.7428 11.592 26.9428 11.344C27.1508 11.088 27.2548 10.708 27.2548 10.204V6.568H29.0548V13H27.4108L27.3628 11.152L27.5908 11.2C27.4948 11.84 27.2668 12.324 26.9068 12.652C26.5468 12.98 26.0628 13.144 25.4548 13.144ZM30.6318 13V6.568H32.3358L32.3958 8.44L32.2638 8.404C32.3678 7.756 32.5518 7.288 32.8158 7C33.0798 6.712 33.4438 6.568 33.9078 6.568H34.4958V8.056H33.9078C33.5718 8.056 33.2958 8.1 33.0798 8.188C32.8638 8.276 32.6998 8.416 32.5878 8.608C32.4838 8.8 32.4318 9.06 32.4318 9.388V13H30.6318ZM39.1325 13.144C38.6845 13.144 38.2925 13.048 37.9565 12.856C37.6285 12.664 37.3725 12.396 37.1885 12.052L37.1525 13H35.4365V4.48H37.2365V7.48C37.4045 7.184 37.6525 6.936 37.9805 6.736C38.3085 6.528 38.6925 6.424 39.1325 6.424C39.6765 6.424 40.1485 6.564 40.5485 6.844C40.9485 7.116 41.2565 7.504 41.4725 8.008C41.6965 8.512 41.8085 9.104 41.8085 9.784C41.8085 10.464 41.6965 11.056 41.4725 11.56C41.2565 12.064 40.9485 12.456 40.5485 12.736C40.1485 13.008 39.6765 13.144 39.1325 13.144ZM38.6285 11.764C39.0285 11.764 39.3485 11.592 39.5885 11.248C39.8365 10.896 39.9605 10.408 39.9605 9.784C39.9605 9.16 39.8405 8.676 39.6005 8.332C39.3605 7.98 39.0405 7.804 38.6405 7.804C38.3445 7.804 38.0885 7.884 37.8725 8.044C37.6645 8.196 37.5045 8.42 37.3925 8.716C37.2885 9.012 37.2365 9.368 37.2365 9.784C37.2365 10.192 37.2885 10.544 37.3925 10.84C37.5045 11.136 37.6645 11.364 37.8725 11.524C38.0885 11.684 38.3405 11.764 38.6285 11.764ZM45.8408 13.144C45.1848 13.144 44.6128 13.008 44.1248 12.736C43.6368 12.456 43.2568 12.064 42.9848 11.56C42.7128 11.056 42.5768 10.464 42.5768 9.784C42.5768 9.104 42.7128 8.516 42.9848 8.02C43.2568 7.516 43.6368 7.124 44.1248 6.844C44.6128 6.564 45.1848 6.424 45.8408 6.424C46.4968 6.424 47.0688 6.564 47.5568 6.844C48.0448 7.124 48.4248 7.516 48.6968 8.02C48.9688 8.516 49.1048 9.104 49.1048 9.784C49.1048 10.464 48.9688 11.056 48.6968 11.56C48.4248 12.064 48.0448 12.456 47.5568 12.736C47.0688 13.008 46.4968 13.144 45.8408 13.144ZM45.8408 11.764C46.2888 11.764 46.6368 11.592 46.8848 11.248C47.1328 10.896 47.2568 10.408 47.2568 9.784C47.2568 9.16 47.1328 8.676 46.8848 8.332C46.6368 7.98 46.2888 7.804 45.8408 7.804C45.3928 7.804 45.0448 7.98 44.7968 8.332C44.5488 8.676 44.4248 9.16 44.4248 9.784C44.4248 10.408 44.5488 10.896 44.7968 11.248C45.0448 11.592 45.3928 11.764 45.8408 11.764ZM50.3216 13V4.48H53.7296C54.7536 4.48 55.5536 4.728 56.1296 5.224C56.7136 5.72 57.0056 6.4 57.0056 7.264C57.0056 7.832 56.8736 8.328 56.6096 8.752C56.3536 9.168 55.9776 9.492 55.4816 9.724C54.9936 9.948 54.4096 10.06 53.7296 10.06H52.1456V13H50.3216ZM52.1456 8.524H53.6216C54.1016 8.524 54.4736 8.42 54.7376 8.212C55.0016 7.996 55.1336 7.68 55.1336 7.264C55.1336 6.856 55.0016 6.548 54.7376 6.34C54.4816 6.124 54.1096 6.016 53.6216 6.016H52.1456V8.524ZM59.9266 13.144C59.2626 13.144 58.7186 12.992 58.2946 12.688C57.8786 12.376 57.6706 11.944 57.6706 11.392C57.6706 10.824 57.8466 10.388 58.1986 10.084C58.5586 9.772 59.0866 9.544 59.7826 9.4L61.8586 8.992C61.8586 8.576 61.7626 8.264 61.5706 8.056C61.3866 7.84 61.1186 7.732 60.7666 7.732C60.4226 7.732 60.1546 7.812 59.9626 7.972C59.7706 8.124 59.6466 8.352 59.5906 8.656L57.7786 8.572C57.8986 7.868 58.2146 7.336 58.7266 6.976C59.2466 6.608 59.9266 6.424 60.7666 6.424C61.7266 6.424 62.4466 6.652 62.9266 7.108C63.4146 7.564 63.6586 8.232 63.6586 9.112V11.308C63.6586 11.492 63.6866 11.616 63.7426 11.68C63.8066 11.736 63.8986 11.764 64.0186 11.764H64.1986V13C64.1426 13.016 64.0506 13.032 63.9226 13.048C63.8026 13.064 63.6826 13.072 63.5626 13.072C63.3066 13.072 63.0666 13.028 62.8426 12.94C62.6266 12.852 62.4506 12.704 62.3146 12.496C62.1786 12.28 62.1106 11.976 62.1106 11.584L62.2666 11.704C62.1866 11.992 62.0426 12.244 61.8346 12.46C61.6346 12.676 61.3706 12.844 61.0426 12.964C60.7226 13.084 60.3506 13.144 59.9266 13.144ZM60.3586 11.908C60.6546 11.908 60.9146 11.852 61.1386 11.74C61.3626 11.62 61.5386 11.448 61.6666 11.224C61.7946 11 61.8586 10.736 61.8586 10.432V10.12L60.3946 10.432C60.1066 10.488 59.8866 10.584 59.7346 10.72C59.5906 10.848 59.5186 11.016 59.5186 11.224C59.5186 11.44 59.5906 11.608 59.7346 11.728C59.8786 11.848 60.0866 11.908 60.3586 11.908ZM65.2614 14.8V13.456H66.1134C66.3214 13.456 66.4734 13.424 66.5694 13.36C66.6734 13.304 66.7534 13.2 66.8094 13.048L66.9414 12.676H66.4494L64.1934 6.568H66.0294L67.5054 10.996L68.8854 6.568H70.7214L68.2494 13.612C68.1054 14.036 67.8974 14.34 67.6254 14.524C67.3534 14.708 66.9734 14.8 66.4854 14.8H65.2614Z" fill="#3B82F6" fill-opacity="0.29"/>
<path d="M18.676 13V6.016H16.132V4.48H23.068V6.016H20.512V13H18.676ZM25.4548 13.144C24.7908 13.144 24.2708 12.932 23.8948 12.508C23.5268 12.076 23.3428 11.476 23.3428 10.708V6.568H25.1428V10.288C25.1428 10.784 25.2188 11.148 25.3708 11.38C25.5228 11.604 25.7628 11.716 26.0908 11.716C26.4588 11.716 26.7428 11.592 26.9428 11.344C27.1508 11.088 27.2548 10.708 27.2548 10.204V6.568H29.0548V13H27.4108L27.3628 11.152L27.5908 11.2C27.4948 11.84 27.2668 12.324 26.9068 12.652C26.5468 12.98 26.0628 13.144 25.4548 13.144ZM30.6318 13V6.568H32.3358L32.3958 8.44L32.2638 8.404C32.3678 7.756 32.5518 7.288 32.8158 7C33.0798 6.712 33.4438 6.568 33.9078 6.568H34.4958V8.056H33.9078C33.5718 8.056 33.2958 8.1 33.0798 8.188C32.8638 8.276 32.6998 8.416 32.5878 8.608C32.4838 8.8 32.4318 9.06 32.4318 9.388V13H30.6318ZM39.1325 13.144C38.6845 13.144 38.2925 13.048 37.9565 12.856C37.6285 12.664 37.3725 12.396 37.1885 12.052L37.1525 13H35.4365V4.48H37.2365V7.48C37.4045 7.184 37.6525 6.936 37.9805 6.736C38.3085 6.528 38.6925 6.424 39.1325 6.424C39.6765 6.424 40.1485 6.564 40.5485 6.844C40.9485 7.116 41.2565 7.504 41.4725 8.008C41.6965 8.512 41.8085 9.104 41.8085 9.784C41.8085 10.464 41.6965 11.056 41.4725 11.56C41.2565 12.064 40.9485 12.456 40.5485 12.736C40.1485 13.008 39.6765 13.144 39.1325 13.144ZM38.6285 11.764C39.0285 11.764 39.3485 11.592 39.5885 11.248C39.8365 10.896 39.9605 10.408 39.9605 9.784C39.9605 9.16 39.8405 8.676 39.6005 8.332C39.3605 7.98 39.0405 7.804 38.6405 7.804C38.3445 7.804 38.0885 7.884 37.8725 8.044C37.6645 8.196 37.5045 8.42 37.3925 8.716C37.2885 9.012 37.2365 9.368 37.2365 9.784C37.2365 10.192 37.2885 10.544 37.3925 10.84C37.5045 11.136 37.6645 11.364 37.8725 11.524C38.0885 11.684 38.3405 11.764 38.6285 11.764ZM45.8408 13.144C45.1848 13.144 44.6128 13.008 44.1248 12.736C43.6368 12.456 43.2568 12.064 42.9848 11.56C42.7128 11.056 42.5768 10.464 42.5768 9.784C42.5768 9.104 42.7128 8.516 42.9848 8.02C43.2568 7.516 43.6368 7.124 44.1248 6.844C44.6128 6.564 45.1848 6.424 45.8408 6.424C46.4968 6.424 47.0688 6.564 47.5568 6.844C48.0448 7.124 48.4248 7.516 48.6968 8.02C48.9688 8.516 49.1048 9.104 49.1048 9.784C49.1048 10.464 48.9688 11.056 48.6968 11.56C48.4248 12.064 48.0448 12.456 47.5568 12.736C47.0688 13.008 46.4968 13.144 45.8408 13.144ZM45.8408 11.764C46.2888 11.764 46.6368 11.592 46.8848 11.248C47.1328 10.896 47.2568 10.408 47.2568 9.784C47.2568 9.16 47.1328 8.676 46.8848 8.332C46.6368 7.98 46.2888 7.804 45.8408 7.804C45.3928 7.804 45.0448 7.98 44.7968 8.332C44.5488 8.676 44.4248 9.16 44.4248 9.784C44.4248 10.408 44.5488 10.896 44.7968 11.248C45.0448 11.592 45.3928 11.764 45.8408 11.764ZM50.3216 13V4.48H53.7296C54.7536 4.48 55.5536 4.728 56.1296 5.224C56.7136 5.72 57.0056 6.4 57.0056 7.264C57.0056 7.832 56.8736 8.328 56.6096 8.752C56.3536 9.168 55.9776 9.492 55.4816 9.724C54.9936 9.948 54.4096 10.06 53.7296 10.06H52.1456V13H50.3216ZM52.1456 8.524H53.6216C54.1016 8.524 54.4736 8.42 54.7376 8.212C55.0016 7.996 55.1336 7.68 55.1336 7.264C55.1336 6.856 55.0016 6.548 54.7376 6.34C54.4816 6.124 54.1096 6.016 53.6216 6.016H52.1456V8.524ZM59.9266 13.144C59.2626 13.144 58.7186 12.992 58.2946 12.688C57.8786 12.376 57.6706 11.944 57.6706 11.392C57.6706 10.824 57.8466 10.388 58.1986 10.084C58.5586 9.772 59.0866 9.544 59.7826 9.4L61.8586 8.992C61.8586 8.576 61.7626 8.264 61.5706 8.056C61.3866 7.84 61.1186 7.732 60.7666 7.732C60.4226 7.732 60.1546 7.812 59.9626 7.972C59.7706 8.124 59.6466 8.352 59.5906 8.656L57.7786 8.572C57.8986 7.868 58.2146 7.336 58.7266 6.976C59.2466 6.608 59.9266 6.424 60.7666 6.424C61.7266 6.424 62.4466 6.652 62.9266 7.108C63.4146 7.564 63.6586 8.232 63.6586 9.112V11.308C63.6586 11.492 63.6866 11.616 63.7426 11.68C63.8066 11.736 63.8986 11.764 64.0186 11.764H64.1986V13C64.1426 13.016 64.0506 13.032 63.9226 13.048C63.8026 13.064 63.6826 13.072 63.5626 13.072C63.3066 13.072 63.0666 13.028 62.8426 12.94C62.6266 12.852 62.4506 12.704 62.3146 12.496C62.1786 12.28 62.1106 11.976 62.1106 11.584L62.2666 11.704C62.1866 11.992 62.0426 12.244 61.8346 12.46C61.6346 12.676 61.3706 12.844 61.0426 12.964C60.7226 13.084 60.3506 13.144 59.9266 13.144ZM60.3586 11.908C60.6546 11.908 60.9146 11.852 61.1386 11.74C61.3626 11.62 61.5386 11.448 61.6666 11.224C61.7946 11 61.8586 10.736 61.8586 10.432V10.12L60.3946 10.432C60.1066 10.488 59.8866 10.584 59.7346 10.72C59.5906 10.848 59.5186 11.016 59.5186 11.224C59.5186 11.44 59.5906 11.608 59.7346 11.728C59.8786 11.848 60.0866 11.908 60.3586 11.908ZM65.2614 14.8V13.456H66.1134C66.3214 13.456 66.4734 13.424 66.5694 13.36C66.6734 13.304 66.7534 13.2 66.8094 13.048L66.9414 12.676H66.4494L64.1934 6.568H66.0294L67.5054 10.996L68.8854 6.568H70.7214L68.2494 13.612C68.1054 14.036 67.8974 14.34 67.6254 14.524C67.3534 14.708 66.9734 14.8 66.4854 14.8H65.2614Z" fill="#3B82F6" fill-opacity="0.32"/>
<path d="M18.676 13V6.016H16.132V4.48H23.068V6.016H20.512V13H18.676ZM25.4548 13.144C24.7908 13.144 24.2708 12.932 23.8948 12.508C23.5268 12.076 23.3428 11.476 23.3428 10.708V6.568H25.1428V10.288C25.1428 10.784 25.2188 11.148 25.3708 11.38C25.5228 11.604 25.7628 11.716 26.0908 11.716C26.4588 11.716 26.7428 11.592 26.9428 11.344C27.1508 11.088 27.2548 10.708 27.2548 10.204V6.568H29.0548V13H27.4108L27.3628 11.152L27.5908 11.2C27.4948 11.84 27.2668 12.324 26.9068 12.652C26.5468 12.98 26.0628 13.144 25.4548 13.144ZM30.6318 13V6.568H32.3358L32.3958 8.44L32.2638 8.404C32.3678 7.756 32.5518 7.288 32.8158 7C33.0798 6.712 33.4438 6.568 33.9078 6.568H34.4958V8.056H33.9078C33.5718 8.056 33.2958 8.1 33.0798 8.188C32.8638 8.276 32.6998 8.416 32.5878 8.608C32.4838 8.8 32.4318 9.06 32.4318 9.388V13H30.6318ZM39.1325 13.144C38.6845 13.144 38.2925 13.048 37.9565 12.856C37.6285 12.664 37.3725 12.396 37.1885 12.052L37.1525 13H35.4365V4.48H37.2365V7.48C37.4045 7.184 37.6525 6.936 37.9805 6.736C38.3085 6.528 38.6925 6.424 39.1325 6.424C39.6765 6.424 40.1485 6.564 40.5485 6.844C40.9485 7.116 41.2565 7.504 41.4725 8.008C41.6965 8.512 41.8085 9.104 41.8085 9.784C41.8085 10.464 41.6965 11.056 41.4725 11.56C41.2565 12.064 40.9485 12.456 40.5485 12.736C40.1485 13.008 39.6765 13.144 39.1325 13.144ZM38.6285 11.764C39.0285 11.764 39.3485 11.592 39.5885 11.248C39.8365 10.896 39.9605 10.408 39.9605 9.784C39.9605 9.16 39.8405 8.676 39.6005 8.332C39.3605 7.98 39.0405 7.804 38.6405 7.804C38.3445 7.804 38.0885 7.884 37.8725 8.044C37.6645 8.196 37.5045 8.42 37.3925 8.716C37.2885 9.012 37.2365 9.368 37.2365 9.784C37.2365 10.192 37.2885 10.544 37.3925 10.84C37.5045 11.136 37.6645 11.364 37.8725 11.524C38.0885 11.684 38.3405 11.764 38.6285 11.764ZM45.8408 13.144C45.1848 13.144 44.6128 13.008 44.1248 12.736C43.6368 12.456 43.2568 12.064 42.9848 11.56C42.7128 11.056 42.5768 10.464 42.5768 9.784C42.5768 9.104 42.7128 8.516 42.9848 8.02C43.2568 7.516 43.6368 7.124 44.1248 6.844C44.6128 6.564 45.1848 6.424 45.8408 6.424C46.4968 6.424 47.0688 6.564 47.5568 6.844C48.0448 7.124 48.4248 7.516 48.6968 8.02C48.9688 8.516 49.1048 9.104 49.1048 9.784C49.1048 10.464 48.9688 11.056 48.6968 11.56C48.4248 12.064 48.0448 12.456 47.5568 12.736C47.0688 13.008 46.4968 13.144 45.8408 13.144ZM45.8408 11.764C46.2888 11.764 46.6368 11.592 46.8848 11.248C47.1328 10.896 47.2568 10.408 47.2568 9.784C47.2568 9.16 47.1328 8.676 46.8848 8.332C46.6368 7.98 46.2888 7.804 45.8408 7.804C45.3928 7.804 45.0448 7.98 44.7968 8.332C44.5488 8.676 44.4248 9.16 44.4248 9.784C44.4248 10.408 44.5488 10.896 44.7968 11.248C45.0448 11.592 45.3928 11.764 45.8408 11.764ZM50.3216 13V4.48H53.7296C54.7536 4.48 55.5536 4.728 56.1296 5.224C56.7136 5.72 57.0056 6.4 57.0056 7.264C57.0056 7.832 56.8736 8.328 56.6096 8.752C56.3536 9.168 55.9776 9.492 55.4816 9.724C54.9936 9.948 54.4096 10.06 53.7296 10.06H52.1456V13H50.3216ZM52.1456 8.524H53.6216C54.1016 8.524 54.4736 8.42 54.7376 8.212C55.0016 7.996 55.1336 7.68 55.1336 7.264C55.1336 6.856 55.0016 6.548 54.7376 6.34C54.4816 6.124 54.1096 6.016 53.6216 6.016H52.1456V8.524ZM59.9266 13.144C59.2626 13.144 58.7186 12.992 58.2946 12.688C57.8786 12.376 57.6706 11.944 57.6706 11.392C57.6706 10.824 57.8466 10.388 58.1986 10.084C58.5586 9.772 59.0866 9.544 59.7826 9.4L61.8586 8.992C61.8586 8.576 61.7626 8.264 61.5706 8.056C61.3866 7.84 61.1186 7.732 60.7666 7.732C60.4226 7.732 60.1546 7.812 59.9626 7.972C59.7706 8.124 59.6466 8.352 59.5906 8.656L57.7786 8.572C57.8986 7.868 58.2146 7.336 58.7266 6.976C59.2466 6.608 59.9266 6.424 60.7666 6.424C61.7266 6.424 62.4466 6.652 62.9266 7.108C63.4146 7.564 63.6586 8.232 63.6586 9.112V11.308C63.6586 11.492 63.6866 11.616 63.7426 11.68C63.8066 11.736 63.8986 11.764 64.0186 11.764H64.1986V13C64.1426 13.016 64.0506 13.032 63.9226 13.048C63.8026 13.064 63.6826 13.072 63.5626 13.072C63.3066 13.072 63.0666 13.028 62.8426 12.94C62.6266 12.852 62.4506 12.704 62.3146 12.496C62.1786 12.28 62.1106 11.976 62.1106 11.584L62.2666 11.704C62.1866 11.992 62.0426 12.244 61.8346 12.46C61.6346 12.676 61.3706 12.844 61.0426 12.964C60.7226 13.084 60.3506 13.144 59.9266 13.144ZM60.3586 11.908C60.6546 11.908 60.9146 11.852 61.1386 11.74C61.3626 11.62 61.5386 11.448 61.6666 11.224C61.7946 11 61.8586 10.736 61.8586 10.432V10.12L60.3946 10.432C60.1066 10.488 59.8866 10.584 59.7346 10.72C59.5906 10.848 59.5186 11.016 59.5186 11.224C59.5186 11.44 59.5906 11.608 59.7346 11.728C59.8786 11.848 60.0866 11.908 60.3586 11.908ZM65.2614 14.8V13.456H66.1134C66.3214 13.456 66.4734 13.424 66.5694 13.36C66.6734 13.304 66.7534 13.2 66.8094 13.048L66.9414 12.676H66.4494L64.1934 6.568H66.0294L67.5054 10.996L68.8854 6.568H70.7214L68.2494 13.612C68.1054 14.036 67.8974 14.34 67.6254 14.524C67.3534 14.708 66.9734 14.8 66.4854 14.8H65.2614Z" fill="url(#paint0_linear_2008_23)" fill-opacity="0.2"/>
<g clip-path="url(#clip0_2008_23)">
<path d="M10.7546 16.7251C12.5565 16.6614 14.3148 15.9779 15.7201 14.6962L14.6894 14.2077C13.5724 15.1578 12.111 15.6337 10.681 15.6714L10.7546 16.7251Z" fill="url(#paint1_linear_2008_23)"/>
<path d="M5.32166 14.7381C6.65233 15.953 8.32017 16.6461 10.0686 16.7107L9.99489 15.657C8.48992 15.5131 7.14066 14.9224 6.01335 13.9424L5.32166 14.7381Z" fill="url(#paint2_linear_2008_23)"/>
<path d="M2.73492 9.81178C2.90954 11.419 3.64207 12.9871 4.79103 14.277L5.48293 13.4812C4.53279 12.3643 3.94583 11.0974 3.78855 9.73811L2.73492 9.81178Z" fill="url(#paint3_linear_2008_23)"/>
<path d="M4.09756 4.36022C3.1393 5.79747 2.63215 7.45229 2.68291 9.06814L3.73653 8.99446C3.70311 7.62654 4.10804 6.29028 4.89349 5.05197L4.09756 4.36022Z" fill="url(#paint4_linear_2008_23)"/>
<path d="M8.98505 1.21561C7.3246 1.51857 5.7075 2.44134 4.55886 3.82963L5.35457 4.52139C6.33018 3.33207 7.64624 2.55491 9.05873 2.26928L8.98505 1.21561Z" fill="url(#paint5_linear_2008_23)"/>
<path d="M14.862 2.42411C13.292 1.35051 11.4557 0.918368 9.66248 1.10603L9.73617 2.15971C11.1575 1.99803 12.609 2.27024 13.9093 3.05127L14.862 2.42411Z" fill="url(#paint6_linear_2008_23)"/>
<path d="M10.7928 13.2036C10.1303 13.2499 9.51102 13.1798 8.93483 12.9933C8.35916 12.8142 7.85737 12.542 7.42948 12.177C6.99444 11.8124 6.64549 11.3724 6.38262 10.8568C6.12026 10.3485 5.9678 9.78861 5.92505 9.17718C5.88229 8.56576 5.95509 7.98649 6.14365 7.43934C6.33272 6.89946 6.61728 6.41876 6.99735 5.9972C7.37027 5.57615 7.82905 5.23319 8.37367 4.96836C8.91881 4.7108 9.5226 4.55887 10.1851 4.51254C10.8546 4.46572 11.4775 4.53188 12.0531 4.71106C12.6222 4.89802 13.1205 5.17406 13.5484 5.53911C13.9762 5.90417 14.3212 6.34086 14.5835 6.84916C14.8464 7.36475 14.9991 7.92825 15.0419 8.53967C15.0846 9.1511 15.0116 9.72675 14.8225 10.2666C14.6339 10.8138 14.3534 11.2978 13.9805 11.7189C13.6076 12.1399 13.1523 12.479 12.6143 12.7361C12.0697 13.0009 11.4624 13.1567 10.7928 13.2036ZM10.6477 11.1291C10.9608 11.1072 11.2551 11.0281 11.5308 10.8918C11.7997 10.7632 12.0327 10.5897 12.2295 10.3711C12.4263 10.1525 12.577 9.90063 12.6814 9.61539C12.7857 9.33015 12.8265 9.02374 12.8036 8.69619C12.7807 8.36864 12.6976 8.07089 12.5546 7.80295C12.4116 7.535 12.2273 7.30651 12.002 7.11746C11.7767 6.9284 11.5215 6.78533 11.2369 6.6882C10.9454 6.59887 10.6432 6.56514 10.3301 6.58703C10.017 6.60892 9.72606 6.68413 9.45717 6.81265C9.18145 6.94897 8.94508 7.1264 8.74831 7.34498C8.5442 7.56405 8.38988 7.81623 8.28554 8.10147C8.18122 8.38671 8.14041 8.69312 8.16331 9.02067C8.18622 9.34822 8.26927 9.64597 8.41228 9.91391C8.5553 10.1819 8.74321 10.4101 8.97583 10.5986C9.2011 10.7877 9.45961 10.9269 9.75112 11.0162C10.0358 11.1133 10.3347 11.151 10.6477 11.1291Z" fill="black"/>
</g>
<defs>
<linearGradient id="paint0_linear_2008_23" x1="16" y1="9" x2="71" y2="9" gradientUnits="userSpaceOnUse">
<stop stop-color="#3B82F6" stop-opacity="0"/>
<stop offset="1" stop-color="#3B82F6" stop-opacity="0.5"/>
</linearGradient>
<linearGradient id="paint1_linear_2008_23" x1="-613.269" y1="60.3658" x2="-722.554" y2="-1502.48" gradientUnits="userSpaceOnUse">
<stop stop-color="#1E90FF"/>
<stop offset="1" stop-color="#FF1E56"/>
</linearGradient>
<linearGradient id="paint2_linear_2008_23" x1="-42.1465" y1="27.0571" x2="-151.431" y2="-1535.79" gradientUnits="userSpaceOnUse">
<stop offset="0.711538" stop-color="#2C82D5"/>
<stop offset="0.903846" stop-color="#FF1E56"/>
</linearGradient>
<linearGradient id="paint3_linear_2008_23" x1="406.679" y1="273.146" x2="297.395" y2="-1289.7" gradientUnits="userSpaceOnUse">
<stop stop-color="#1E90FF"/>
<stop offset="1" stop-color="#FF1E56"/>
</linearGradient>
<linearGradient id="paint4_linear_2008_23" x1="443.58" y1="800.851" x2="334.295" y2="-761.994" gradientUnits="userSpaceOnUse">
<stop offset="0.317308" stop-color="#1E90FF"/>
<stop offset="1" stop-color="#FF1E56"/>
</linearGradient>
<linearGradient id="paint5_linear_2008_23" x1="44.0982" y1="1260.41" x2="-65.1866" y2="-302.432" gradientUnits="userSpaceOnUse">
<stop offset="0.730769" stop-color="#1E90FF"/>
<stop offset="1" stop-color="#FF1E56"/>
</linearGradient>
<linearGradient id="paint6_linear_2008_23" x1="-520.556" y1="1386.22" x2="-629.841" y2="-176.622" gradientUnits="userSpaceOnUse">
<stop offset="0.831731" stop-color="#1E90FF"/>
<stop offset="1" stop-color="#FF1E56"/>
</linearGradient>
<clipPath id="clip0_2008_23">
<rect width="16" height="16" fill="white" transform="translate(0.461456 1.57755) rotate(-4)"/>
</clipPath>
</defs>
</svg>
